<svg width="740" height="456" viewBox="0 0 740 456" fill="none" xmlns="http://www.w3.org/2000/svg">
<path d="M382.908 232.245C556.283 103.277 723.81 153.682 735.365 157.383C735.777 157.514 736 157.899 735.998 158.332C735.054 340.535 386.054 406.655 144.84 430.595C143.506 430.727 5.47646 258.849 5.51369 257.509C8.8837 136.263 -10.0489 13.2138 29.8158 86.0887C100.536 215.369 324.108 275.928 83.0818 338.012C-84.2226 381.106 409.536 437.799 544.75 452.435C546.049 452.576 547.552 445.268 546.334 444.794C476.415 417.577 332.729 345.524 566.815 281.664C936.292 180.869 369.018 137.263 454.892 132.88C540.767 128.498 273.771 -154.896 292.533 132.88C307.543 363.102 260.38 76.6658 149.121 142.828" stroke="black" stroke-width="6.05669" stroke-linejoin="round"/>
</svg>
