<svg width="123" height="34" viewBox="0 0 123 34" fill="none" xmlns="http://www.w3.org/2000/svg">
<path d="M4 0H-21C-30.3888 0 -38 7.61116 -38 17C-38 26.3888 -30.3888 34 -21 34H2.72156C3.57265 34 4.42324 33.936 5.26477 33.8087C24.7025 30.8685 23.4836 2.61964 4 0Z" fill="white"/>
<path d="M34 17C34 26.3888 17.8823 34 -2 34C-21.8822 34 -38 26.3888 -38 17C-38 7.61116 -21.8822 0 -2 0C17.8823 0 34 7.61116 34 17Z" fill="white"/>
<path d="M52.7886 28.2219C72.3841 21.5053 75.655 23.7623 78.7945 25.1915C79.5938 25.5554 80.1738 24.7132 79.6648 23.9976C73.7538 15.6876 73.3018 17.5304 54.0186 7.35468C33.3805 -3.53599 21 8.45788 21 16.5738C21 24.6898 28.9158 36.4046 52.7886 28.2219Z" fill="#4E7EF8"/>
</svg>
