<svg width="162" height="34" viewBox="0 0 162 34" fill="none" xmlns="http://www.w3.org/2000/svg">
<path d="M115 17C115 26.3888 89.2564 34 57.5 34C25.7436 34 0 26.3888 0 17C0 7.61116 25.7436 0 57.5 0C89.2564 0 115 7.61116 115 17Z" fill="white"/>
<path d="M133.789 28.2222C153.384 21.5056 156.655 23.7625 159.794 25.1918C160.594 25.5556 161.174 24.7135 160.665 23.9978C154.754 15.6878 154.302 17.5306 135.019 7.35493C114.381 -3.53575 102 8.45812 102 16.5741C102 24.6901 109.916 36.4049 133.789 28.2222Z" fill="#4E7EF8"/>
</svg>
