<svg width="220" height="153" viewBox="0 0 220 153" fill="none" xmlns="http://www.w3.org/2000/svg">
<rect width="219.043" height="153" fill="white"/>
<path d="M152.725 110.531C146.115 110.531 107.687 110.531 71.4551 114.2L117.706 87.7968C118.046 87.1656 128.091 79.1762 147.038 69.4378C173.272 55.954 201.083 44.5456 203.083 69.4379C205.559 100.258 165.658 110.531 152.725 110.531Z" fill="#573400"/>
<path d="M151.716 42.0111C144.304 32.3982 111.142 53.8439 95.4873 65.7683C104.691 70.4769 124.766 79.4538 131.444 77.6927C139.791 75.4912 171.804 60.6315 167.126 58.6135C162.448 56.5956 160.98 54.0273 151.716 42.0111Z" fill="#8C5400"/>
<path d="M95.2122 66.2272C108.347 73.2718 125.818 77.2955 132.912 78.4268C108.268 93.0113 60.2644 126.859 42.6528 117.594C30.7376 111.326 42.6528 82.8296 58.2464 66.2272C61.1046 62.0995 82.0769 59.1826 95.2122 66.2272Z" fill="#BF7403"/>
<path d="M91.2678 35.1317C85.1772 41.736 76.1941 50.2972 72.4639 53.7522L105.944 61.549L111.356 56.4123C107.198 46.567 97.3585 28.5274 91.2678 35.1317Z" fill="#E5603B"/>
<path d="M71.2751 54.406C94.1151 37.6201 88.1528 20.192 107.415 49.6363C126.678 79.0805 99.6187 98.8934 88.1528 83.2999C76.687 67.7064 146.583 27.9888 155.572 44.2244C164.561 60.46 194.556 75.5032 163.919 83.2999C139.41 89.5373 93.1026 54.406 61.0935 65.8719C50.0828 69.4492 19.8532 128.374 57.4244 118.248C104.388 105.589 133.741 69.9996 144.656 69.4492C155.572 68.8988 200.059 33.3089 202.444 69.4492C204.352 98.3614 171.991 108.769 155.572 110.359" stroke="black" stroke-width="1.11112" stroke-linejoin="round"/>
<path d="M97.6888 100.441L132.361 79.1605L156.119 84.8476V91.9105L151.991 104.844L161.53 121.722L151.991 125.207V136.948L174.005 152.725H96.7715L107.228 136.948L97.6888 100.441Z" fill="#C4C4C4"/>
</svg>
