<svg width="220" height="154" viewBox="0 0 220 154" fill="none" xmlns="http://www.w3.org/2000/svg">
<rect width="219.388" height="153.241" fill="white"/>
<path d="M30.8687 116.033C25.4483 118.422 19.5686 120.259 16.6287 127.333C15.5875 130.671 12.5129 138.229 8.54403 141.757C4.5752 145.285 1.99055 147.821 1.19434 148.647C5.29792 148.647 15.416 147.912 23.0597 144.973C32.6143 141.298 51.7235 137.898 57.052 134.683C62.3806 131.467 82.3166 133.213 91.5956 129.538C100.875 125.863 100.691 127.333 159.213 111.899C217.735 96.4645 204.322 61.921 196.513 55.3062C190.265 50.0145 174.8 55.0612 167.849 58.246C152.231 29.1229 139.185 43.0873 127.15 44.741C117.522 46.0639 101.763 59.8691 95.0867 66.6064C89.697 63.9115 75.0404 60.1386 59.5326 66.6064C40.1477 74.691 39.964 107.213 39.964 111.899C39.964 116.584 36.2891 113.644 30.8687 116.033Z" fill="#FFB494" fill-opacity="0.948438"/>
<path d="M89.6665 27.3776C65.339 28.774 65.6269 52.6422 68.8118 64.4017C72.7622 60.4512 94.0763 67.0659 94.0763 67.0659C94.0763 67.0659 114.839 50.9272 123.016 46.7624C122.036 39.719 113.994 25.9811 89.6665 27.3776Z" fill="#E53B3B"/>
<path d="M92.1464 34.4511C87.2956 39.3019 76.5283 49.7017 71.751 54.2953C76.4977 53.6522 87.2221 51.4289 92.1464 47.6806C97.0707 43.9322 103.998 50.5286 106.846 54.2953C110.521 52.0904 119.138 47.2028 124.209 45.2919C129.281 43.381 135.816 44.4957 138.449 45.2919C131.835 42.9033 130.549 34.4511 124.209 34.4511C119.138 34.4511 110.521 43.2708 106.846 47.6806C103.967 41.2496 96.9972 29.6003 92.1464 34.4511Z" fill="#9FADD3"/>
<path d="M127.52 13.2828C124.941 15.8299 119.216 21.2908 116.676 23.7029C119.199 23.3652 124.901 22.1978 127.52 20.2295C130.138 18.2613 133.821 21.725 135.335 23.7029C137.289 22.5451 141.871 19.9787 144.567 18.9753C147.263 17.9718 150.738 18.5572 152.138 18.9753C148.621 17.721 147.937 13.2828 144.567 13.2828C141.871 13.2828 137.289 17.9139 135.335 20.2295C133.804 16.8526 130.099 10.7356 127.52 13.2828Z" fill="#9FADD3"/>
<path d="M157.654 24.3074C155.075 26.8546 149.351 32.3155 146.811 34.7276C149.334 34.3899 155.036 33.2224 157.654 31.2542C160.273 29.2859 163.956 32.7497 165.47 34.7276C167.424 33.5698 172.005 31.0033 174.702 29.9999C177.398 28.9965 180.873 29.5818 182.273 29.9999C178.756 28.7456 178.072 24.3074 174.702 24.3074C172.005 24.3074 167.424 28.9386 165.47 31.2542C163.939 27.8773 160.233 21.7603 157.654 24.3074Z" fill="#9FADD3"/>
<path d="M71.3873 54.4917C94.2632 37.6793 88.2916 20.2237 107.585 49.7144C126.878 79.2051 99.7755 99.0492 88.2916 83.4311C76.8077 67.813 146.814 28.0328 155.817 44.294C164.82 60.5552 194.862 75.6221 164.177 83.4311C139.629 89.6784 93.2491 54.4917 61.1896 65.9756C50.1615 69.5586 19.8843 128.577 57.5148 118.434C104.553 105.756 133.952 70.1098 144.884 69.5586C155.817 69.0074 200.375 33.3613 202.763 69.5586C204.674 98.5164 172.262 108.941 155.817 110.533" stroke="black" stroke-width="1.11287" stroke-linejoin="round"/>
<path d="M30.8679 136.521C21.0928 137.329 10.4419 141.084 2.2041 148.28C17.271 154.344 47.1291 140.104 56.1325 136.521C76.0686 128.587 85.8988 137.96 95.4534 136.521C104.763 134.254 132.698 117.595 158.569 112.45C190.908 106.019 197.247 91.32 202.3 81.5816C207.353 71.8433 197.247 79.1011 188.978 76.2531C180.71 73.4051 176.392 88.7476 163.53 90.9525C150.668 93.1574 137.347 87.6451 131.926 85.1646C126.506 82.6841 113.644 84.2458 100.414 93.9842C89.8309 101.775 75.9767 93.9842 62.7472 108.867C53.846 118.881 40.643 135.712 30.8679 136.521Z" fill="#F66615"/>
</svg>
