<svg width="33" height="30" viewBox="0 0 33 30" fill="none" xmlns="http://www.w3.org/2000/svg">
<path d="M31.0612 8H1.93875C1.42456 8 0.931433 8.19807 0.567847 8.55064C0.20426 8.90321 0 9.38139 0 9.88V28.12C0 28.6186 0.20426 29.0968 0.567847 29.4494C0.931433 29.8019 1.42456 30 1.93875 30H31.0612C31.5754 30 32.0686 29.8019 32.4322 29.4494C32.7957 29.0968 33 28.6186 33 28.12V9.88C33 9.38139 32.7957 8.90321 32.4322 8.55064C32.0686 8.19807 31.5754 8 31.0612 8ZM30.9375 28H2.0625V10H30.9375V28Z" fill="#484646"/>
<path d="M7 18C7.59334 18 8.17336 17.7947 8.66671 17.4101C9.16006 17.0256 9.54457 16.4789 9.77164 15.8394C9.9987 15.1999 10.0581 14.4961 9.94235 13.8172C9.8266 13.1383 9.54088 12.5146 9.12132 12.0251C8.70176 11.5356 8.16721 11.2023 7.58527 11.0673C7.00333 10.9322 6.40013 11.0015 5.85195 11.2664C5.30377 11.5313 4.83524 11.9799 4.50559 12.5555C4.17595 13.1311 4 13.8078 4 14.5C4 15.4283 4.31607 16.3185 4.87868 16.9749C5.44129 17.6312 6.20435 18 7 18ZM7 12.6333C7.31803 12.6241 7.63122 12.7256 7.89954 12.925C8.16787 13.1244 8.37916 13.4126 8.50642 13.7527C8.63367 14.0929 8.67112 14.4696 8.61398 14.8347C8.55683 15.1998 8.40769 15.5368 8.1856 15.8025C7.96351 16.0683 7.67856 16.2508 7.36715 16.3266C7.05574 16.4025 6.732 16.3684 6.4373 16.2286C6.14261 16.0888 5.89032 15.8497 5.71268 15.5417C5.53503 15.2338 5.4401 14.8712 5.44 14.5C5.43987 14.0129 5.60294 13.5451 5.8944 13.1963C6.18586 12.8475 6.58262 12.6455 7 12.6333Z" fill="#484646"/>
<path d="M6.05565 26L12.2849 20.1342L15.5864 23.2431L12.6586 26H14.7351L22.4801 18.7069L29 24.7975V22.8422L22.9784 17.2013C22.8403 17.0724 22.6538 17 22.4593 17C22.2648 17 22.0783 17.0724 21.9402 17.2013L16.5831 22.2459L12.7728 18.6678C12.6348 18.5388 12.4482 18.4664 12.2537 18.4664C12.0593 18.4664 11.8727 18.5388 11.7346 18.6678L4 26H6.05565Z" fill="#484646"/>
<path d="M29 1C29 0.734784 28.8903 0.48043 28.6949 0.292893C28.4996 0.105357 28.2346 0 27.9583 0H5.04167C4.7654 0 4.50045 0.105357 4.3051 0.292893C4.10975 0.48043 4 0.734784 4 1V2H29V1Z" fill="#484646"/>
<path d="M31 5C31 4.73478 30.8909 4.48043 30.6966 4.29289C30.5024 4.10536 30.239 4 29.9643 4H3.03571C2.76103 4 2.49759 4.10536 2.30335 4.29289C2.10912 4.48043 2 4.73478 2 5V6H31V5Z" fill="#484646"/>
</svg>
