<svg width="81" height="40" viewBox="0 0 81 40" fill="none" xmlns="http://www.w3.org/2000/svg">
<path d="M45 20C45 31.0457 18.1371 40 -15 40C-48.1371 40 -75 31.0457 -75 20C-75 8.9543 -48.1371 0 -15 0C18.1371 0 45 8.9543 45 20Z" fill="white"/>
<path d="M36.9767 30.0194C46.3242 25.5561 54.4332 30.4521 57.7033 34.1659C58.1886 34.717 59.1023 34.7618 59.5899 34.2126C65.6439 27.3939 72.0272 23.9932 80.2491 21.1666C80.9422 20.9284 81.1315 20.2126 80.9169 19.6607C80.8475 19.3037 80.612 18.9784 80.1874 18.8324C71.9654 16.0059 65.5821 12.6051 59.5281 5.78643C59.0405 5.23725 58.1269 5.28207 57.6416 5.83318C54.3714 9.54698 46.2624 14.443 36.915 9.97964C36.856 9.9515 36.7933 9.92752 36.7302 9.9098L26.8318 5.04237C26.1346 4.84659 25.4385 5.3539 25.4385 6.05781V19.9799C25.4385 20.1031 25.4602 20.2215 25.5002 20.3315V33.9422C25.5002 34.6461 26.1963 35.1534 26.8936 34.9576L36.7919 30.0893C36.8551 30.0715 36.9178 30.0476 36.9767 30.0194Z" fill="#4E7EF8"/>
</svg>
