<svg width="24" height="30" viewBox="0 0 24 30" fill="none" xmlns="http://www.w3.org/2000/svg">
<path d="M1 3.75V25.75C1 26.4793 1.28973 27.1788 1.80546 27.6945C2.32118 28.2103 3.02065 28.5 3.75 28.5H20.25C20.9793 28.5 21.6788 28.2103 22.1945 27.6945C22.7103 27.1788 23 26.4793 23 25.75V9.72025C23 9.35389 22.9267 8.99124 22.7846 8.65359C22.6424 8.31593 22.4342 8.01008 22.1723 7.754L16.0673 1.78375C15.5535 1.2814 14.8635 1.00009 14.145 1H3.75C3.02065 1 2.32118 1.28973 1.80546 1.80546C1.28973 2.32118 1 3.02065 1 3.75V3.75Z" stroke="#484646" stroke-width="1.5" stroke-linecap="round" stroke-linejoin="round"/>
<path d="M14.749 1V6.5C14.749 7.22935 15.0388 7.92882 15.5545 8.44454C16.0702 8.96027 16.7697 9.25 17.499 9.25H22.999" stroke="#484646" stroke-width="1.5" stroke-linejoin="round"/>
</svg>
