<svg width="162" height="40" viewBox="0 0 162 40" fill="none" xmlns="http://www.w3.org/2000/svg">
<path d="M126 20C126 31.0457 97.7939 40 63 40C28.2061 40 0 31.0457 0 20C0 8.9543 28.2061 0 63 0C97.7939 0 126 8.9543 126 20Z" fill="white"/>
<path d="M117.977 30.0199C127.324 25.5566 135.433 30.4526 138.703 34.1664C139.189 34.7175 140.102 34.7623 140.59 34.2131C146.644 27.3944 153.027 23.9937 161.249 21.1671C161.942 20.9289 162.131 20.2131 161.917 19.6612C161.848 19.3042 161.612 18.9789 161.187 18.8329C152.965 16.0064 146.582 12.6056 140.528 5.78692C140.041 5.23774 139.127 5.28256 138.642 5.83367C135.371 9.54747 127.262 14.4434 117.915 9.98013C117.856 9.95199 117.793 9.928 117.73 9.91028L107.832 5.04286C107.135 4.84708 106.438 5.35439 106.438 6.0583V19.9804C106.438 20.1036 106.46 20.222 106.5 20.332V33.9427C106.5 34.6466 107.196 35.1539 107.894 34.9581L117.792 30.0898C117.855 30.072 117.918 30.0481 117.977 30.0199Z" fill="#4E7EF8"/>
</svg>
